# xmcd CD database file
# Copyright (C) 1993-1998 Ti Kan
#
# Track frame offsets:
#	182
#	21657
#	42502
#	53900
#	71590
#	89742
#	108130
#	121630
#	140057
#	160052
#	172630
#	186902
#	198122
#	212790
#	225722
#	242725
#	264120
#	275297
#	287612
#	302947
#
# Disc length: 4256 seconds
#
# Revision: 1
# Processed by: cddbd v1.4b41PL1 Copyright (c) Steve Scherf et al.
# Submitted via: CDValet v3.31 - Copyright (c) 1997 Greg Leichner
#
DISCID=1c109e14
DTITLE=John Denver - His Greatest Hits and Finest Performances 
DTITLE=[CD2]
DYEAR=1900
DGENRE=
TTITLE0=Rocky Mountain High
TTITLE1=The Cowboy and the Lady
TTITLE2=Christmas for Cowboys
TTITLE3=Dancing with the Mountains
TTITLE4=Looking for Space
TTITLE5=Wild Montana Skies
TTITLE6=Downhill Stuff
TTITLE7=Farewell Andromeda (Welcome to My Morning)
TTITLE8=I'd Rather Be a Cowboy
TTITLE9=Baby, You Look Good to Me Tonight
TTITLE10=How Can I Leave You Again
TTITLE11=Sweet Melinda
TTITLE12=Everyday
TTITLE13=Love Again
TTITLE14=Seasons of the Heart
TTITLE15=Back Home Again
TTITLE16=Follow Me
TTITLE17=I Remember You
TTITLE18=Friends with You
TTITLE19=Leaving on a Jet Plane
EXTD=
EXTT0=
EXTT1=
EXTT2=
EXTT3=
EXTT4=
EXTT5=
EXTT6=
EXTT7=
EXTT8=
EXTT9=
EXTT10=
EXTT11=
EXTT12=
EXTT13=
EXTT14=
EXTT15=
EXTT16=
EXTT17=
EXTT18=
EXTT19=
PLAYORDER=
